<svg xmlns="http://www.w3.org/2000/svg"><symbol viewBox="0 0 12 12" id="c-cl-akcj"><title>Shape</title><desc>Created with Sketch.</desc> <!-- Generator: Sketch 39 (31667) - http://www.bohemiancoding.com/sketch -->    <g id="c-cl-akcj-pc_&#x57FA;&#x7840;&#x4E1A;&#x52A1;" stroke-width="1"> <g id="c-cl-akcj-home-copy-3" transform="translate(-123.000000, -214.000000)"> <g id="c-cl-akcj-Group-9" transform="translate(95.000000, 80.000000)"> <path d="M38.4998355,134 L29.4999726,134 C28.6715681,134 28,134.671582 28,135.499986 L28,144.500014 C28,145.328418 28.6715818,146 29.4999726,146 L38.5,146 C39.3284045,146 39.9999726,145.328418 39.9999726,144.500014 L39.9999726,135.500151 C39.9998081,134.671582 39.3284045,134 38.4998355,134 L38.4998355,134 L38.4998355,134 Z M38.4998355,141.500069 C38.4998355,141.914428 38.1640514,142.250048 37.7498561,142.250048 L36.9998492,142.250048 C36.3512836,142.250048 36.2497053,143.000027 36.2497053,143.000027 L36.2497053,143.375127 L36.2497053,143.750199 C36.2497053,144.16438 35.9139212,144.500178 35.4997258,144.500178 L32.4999452,144.500178 C32.0857361,144.500178 31.7497738,144.164394 31.7497738,143.750199 L31.7497738,143.375127 L31.7497738,143.000027 C31.7497738,143.000027 31.7451816,142.250048 30.9997944,142.250048 L30.249815,142.250048 C29.8356059,142.250048 29.4998081,141.914428 29.4998081,141.500069 L29.4998081,136.250158 C29.4998081,135.835949 29.8355922,135.500151 30.249815,135.500151 L37.7496916,135.500151 C38.1638732,135.500151 38.499671,135.835949 38.499671,136.250158 L38.499671,141.500069 L38.4998355,141.500069 L38.4998355,141.500069 Z M30.9997807,137.000137 L36.9998492,137.000137 L36.9998492,138.500123 L30.9997807,138.500123 L30.9997807,137.000137 L30.9997807,137.000137 L30.9997807,137.000137 Z M30.9997807,139.250089 L36.9998492,139.250089 L36.9998492,140.750075 L30.9997807,140.750075 L30.9997807,139.250089 L30.9997807,139.250089 L30.9997807,139.250089 Z" id="c-cl-akcj-Shape"/> </g> </g> </g> </symbol><symbol viewBox="0 0 13 12" id="c-cl-lg"><title>Shape</title><desc>Created with Sketch.</desc> <!-- Generator: Sketch 39 (31667) - http://www.bohemiancoding.com/sketch -->    <g id="c-cl-lg-pc_&#x57FA;&#x7840;&#x4E1A;&#x52A1;" stroke-width="1"> <g id="c-cl-lg-home-copy-3" transform="translate(-122.000000, -307.000000)"> <g id="c-cl-lg-Group-9" transform="translate(95.000000, 80.000000)"> <path d="M38.1345717,239 C38.7517736,238.980767 39.1261409,238.96769 39.1261409,238.96769 C39.1261409,238.96769 39.1261409,236.781399 37.778378,236.361021 C36.4306151,235.940581 34.6350735,235.518769 34.6350735,235.098375 L34.6350735,234.256076 C34.6350735,234.256076 34.6350735,234.677981 35.9821038,234.256076 L37.3291186,233.835729 C37.3291186,233.835729 36.4306307,232.993461 36.4306307,231.730815 C36.4306307,230.468169 36.4306307,228.364751 35.0836004,227.522483 C34.3272129,227.050249 33.5811435,226.979238 33.0630861,227.00441 C32.5449975,226.979238 31.7974629,227.050249 31.0417924,227.522483 C29.6940295,228.364751 29.6940295,230.468169 29.6940295,231.730815 C29.6940295,232.993461 28.7955261,233.835729 28.7955261,233.835729 C28.7955261,233.835729 28.7955261,233.835729 30.1433046,234.256076 C31.4910519,234.677981 31.4910519,234.256076 31.4910519,234.256076 L31.4910519,235.098375 C31.4910519,235.518769 29.6940451,235.940581 28.3470459,236.361021 C27,236.781415 27,238.96769 27,238.96769 C27,238.96769 27.3743829,238.980767 27.9915692,239 L38.1345717,239 L38.1345717,239 Z" id="c-cl-lg-Shape"/> </g> </g> </g> </symbol><symbol viewBox="0 0 10 12" id="c-cl-mkc"><title>Shape</title><desc>Created with Sketch.</desc> <!-- Generator: Sketch 39 (31667) - http://www.bohemiancoding.com/sketch -->    <g id="c-cl-mkc-pc_&#x57FA;&#x7840;&#x4E1A;&#x52A1;" stroke-width="1"> <g id="c-cl-mkc-home-copy-3" transform="translate(-124.000000, -167.000000)"> <g id="c-cl-mkc-Group-9" transform="translate(95.000000, 80.000000)"> <path d="M33.2165756,93.053669 L31.5951081,94.5677986 L31.5951081,89.2702446 L30.946331,89.2702446 C30.946331,89.2702446 29.9014486,89.3956305 29.9137972,88.5160294 C29.9232961,87.7171693 30.8408929,87.7656139 30.8408929,87.7656139 L38.5150796,87.7561149 C38.653764,87.7561149 38.8389931,87.6383282 38.8389931,87.3239136 C38.8389931,87.0094989 38.5150796,87 38.5150796,87 L30.946331,87 C29.0883401,87 29,88.6214676 29,88.6214676 L29,97.1619568 C29,98.6200427 30.5141297,99 30.5141297,99 L36.4604607,99 C38.4428877,99 38.7307053,97.4868202 38.7307053,97.4868202 L38.7307053,89.2702446 L34.8361434,89.2702446 L34.8361434,94.5677986 L33.2165756,93.053669 Z" id="c-cl-mkc-Shape"/> </g> </g> </g> </symbol><symbol viewBox="0 0 10 13" id="c-cl-mkcj"><title>Shape</title><desc>Created with Sketch.</desc> <!-- Generator: Sketch 39 (31667) - http://www.bohemiancoding.com/sketch -->    <g id="c-cl-mkcj-pc_&#x57FA;&#x7840;&#x4E1A;&#x52A1;" stroke-width="1"> <g id="c-cl-mkcj-home-copy-3" transform="translate(-124.000000, -260.000000)"> <g id="c-cl-mkcj-Group-9" transform="translate(95.000000, 80.000000)"> <path d="M37.4541578,181.71855 C37.583511,181.71855 37.7128643,181.748579 37.8422175,181.808635 C37.9715707,181.868692 38.0870647,181.947228 38.1886994,182.044243 C38.290334,182.141258 38.3711798,182.252132 38.4312367,182.376866 C38.4912935,182.501599 38.521322,182.628643 38.521322,182.757996 L38.521322,191.891258 C38.521322,192.020611 38.4912935,192.149964 38.4312367,192.279318 C38.3711798,192.408671 38.290334,192.526475 38.1886994,192.632729 C38.0870647,192.738984 37.9715707,192.826759 37.8422175,192.896055 C37.7128643,192.965352 37.583511,193 37.4541578,193 L29.9285714,193 C29.669865,193 29.4504264,192.898365 29.2702559,192.695096 C29.0900853,192.491827 29,192.256219 29,191.988273 L29,182.785714 C29,182.656361 29.0277186,182.529318 29.0831557,182.404584 C29.1385928,182.279851 29.210199,182.166667 29.2979744,182.065032 C29.3857498,181.963397 29.4896944,181.880242 29.6098081,181.815565 C29.7299218,181.750888 29.8546553,181.71855 29.9840085,181.71855 L30.7185501,181.71855 L30.7185501,180.776119 C30.7185501,180.563611 30.8132552,180.38113 31.0026652,180.228678 C31.1920753,180.076226 31.3930348,180 31.6055437,180 C31.8180526,180 32.0143923,180.076226 32.1945629,180.228678 C32.3747335,180.38113 32.4648188,180.563611 32.4648188,180.776119 L32.4648188,181.71855 L35.0565032,181.71855 L35.0565032,180.776119 C35.0565032,180.563611 35.1442786,180.38113 35.3198294,180.228678 C35.4953802,180.076226 35.7032694,180 35.9434968,180 C36.1837242,180 36.3916134,180.076226 36.5671642,180.228678 C36.742715,180.38113 36.8304904,180.563611 36.8304904,180.776119 L36.8304904,181.71855 L37.4541578,181.71855 L37.4541578,181.71855 Z M32.8944563,184.282516 C32.7743426,184.282516 32.6727079,184.333333 32.5895522,184.434968 C32.5063966,184.536603 32.4648188,184.647477 32.4648188,184.767591 C32.4648188,184.887704 32.5063966,184.998579 32.5895522,185.100213 C32.6727079,185.201848 32.7743426,185.252665 32.8944563,185.252665 L36.3592751,185.252665 C36.4886283,185.252665 36.5948827,185.201848 36.6780384,185.100213 C36.761194,184.998579 36.8027719,184.887704 36.8027719,184.767591 C36.8027719,184.647477 36.761194,184.536603 36.6780384,184.434968 C36.5948827,184.333333 36.4886283,184.282516 36.3592751,184.282516 L32.8944563,184.282516 L32.8944563,184.282516 Z M33.8230277,190.449893 C33.9431414,190.449893 34.0447761,190.399076 34.1279318,190.297441 C34.2110874,190.195807 34.2526652,190.084932 34.2526652,189.964819 C34.2526652,189.844705 34.2110874,189.733831 34.1279318,189.632196 C34.0447761,189.530561 33.9431414,189.479744 33.8230277,189.479744 L31.1066098,189.479744 C30.9864961,189.479744 30.8848614,189.530561 30.8017058,189.632196 C30.7185501,189.733831 30.6769723,189.844705 30.6769723,189.964819 C30.6769723,190.084932 30.7185501,190.195807 30.8017058,190.297441 C30.8848614,190.399076 30.9864961,190.449893 31.1066098,190.449893 L33.8230277,190.449893 L33.8230277,190.449893 Z M36.4147122,187.858209 C36.5440654,187.858209 36.6503198,187.798152 36.7334755,187.678038 C36.8166311,187.557925 36.858209,187.433191 36.858209,187.303838 C36.858209,187.183724 36.8166311,187.08209 36.7334755,186.998934 C36.6503198,186.915778 36.5440654,186.8742 36.4147122,186.8742 L31.1066098,186.8742 C30.9864961,186.8742 30.8848614,186.915778 30.8017058,186.998934 C30.7185501,187.08209 30.6769723,187.183724 30.6769723,187.303838 C30.6769723,187.433191 30.7185501,187.557925 30.8017058,187.678038 C30.8848614,187.798152 30.9864961,187.858209 31.1066098,187.858209 L36.4147122,187.858209 L36.4147122,187.858209 Z" id="c-cl-mkcj-Shape"/> </g> </g> </g> </symbol><symbol viewBox="0 0 12 11" id="c-cl-msc"><title>&#x6536;&#x85CF; (1)</title><desc>Created with Sketch.</desc> <!-- Generator: Sketch 39 (31667) - http://www.bohemiancoding.com/sketch -->    <g id="c-cl-msc-pc_&#x57FA;&#x7840;&#x4E1A;&#x52A1;" stroke-width="1"> <g id="c-cl-msc-home-copy-3" transform="translate(-122.000000, -402.000000)"> <g id="c-cl-msc-Group-9" transform="translate(95.000000, 80.000000)"> <g id="c-cl-msc-&#x6536;&#x85CF;-(1)" transform="translate(27.000000, 322.000000)"> <path d="M5.99708503,10.7168466 C5.94711744,10.7168466 5.87215141,10.6918628 5.82218383,10.666879 C5.59738821,10.5670023 0.00211580453,7.71936195 0.00211580453,3.44798185 C0.00211580453,1.54957932 1.55078911,0.000891375447 3.44920628,0.000891375447 C4.42335476,0.000891375447 5.34760882,0.425513435 5.99708504,1.12495725 C6.64650272,0.400529635 7.57074215,0.000891375447 8.54490525,0.000891375447 C10.4433078,0.000891375447 11.9919811,1.54957932 11.9919811,3.44798185 C11.9919811,7.71936195 6.39670867,10.5670023 6.17191307,10.666879 C6.12194546,10.6918628 6.04699407,10.7168466 5.99708503,10.7168466 L5.99708503,10.7168466 L5.99708503,10.7168466 Z" id="c-cl-msc-Shape"/> </g> </g> </g> </g> </symbol><symbol viewBox="0 0 12 12" id="c-cl-mzh"><title>Shape</title><desc>Created with Sketch.</desc> <!-- Generator: Sketch 39 (31667) - http://www.bohemiancoding.com/sketch -->    <g id="c-cl-mzh-pc_&#x57FA;&#x7840;&#x4E1A;&#x52A1;" stroke-width="1"> <g id="c-cl-mzh-home-copy-3" transform="translate(-121.000000, -449.000000)"> <g id="c-cl-mzh-Group-9" transform="translate(95.000000, 80.000000)"> <path d="M32,381 C28.6862965,381 26,378.313718 26,375 C26,371.686298 28.6862965,369 32,369 C35.3137035,369 38,371.686313 38,375 C38,378.313733 35.3137035,381 32,381 L32,381 Z M32.3909641,374.904161 C33.1869524,374.776686 33.7930611,374.080689 33.7930611,373.239466 C33.7930611,372.308137 33.0474944,371.553196 32.1275742,371.553196 C31.2076695,371.553196 30.4620873,372.308106 30.4620873,373.239466 C30.4620873,374.07864 31.0701869,374.776671 31.8641997,374.904161 C30.3761067,375.030917 29.1915774,376.420999 29.0638334,377.936156 L35.1914848,377.936156 C35.0646205,376.420326 33.8796127,375.030932 32.3909487,374.904161 L32.3909641,374.904161 Z" id="c-cl-mzh-Shape"/> </g> </g> </g> </symbol><symbol viewBox="0 0 12 11" id="c-cl-xp"><title>&#x6392;&#x540D;</title><desc>Created with Sketch.</desc> <!-- Generator: Sketch 39 (31667) - http://www.bohemiancoding.com/sketch -->    <g id="c-cl-xp-pc_&#x57FA;&#x7840;&#x4E1A;&#x52A1;" stroke-width="1"> <g id="c-cl-xp-home-copy-3" transform="translate(-122.000000, -355.000000)"> <g id="c-cl-xp-Group-9" transform="translate(95.000000, 80.000000)"> <g id="c-cl-xp-&#x6392;&#x540D;" transform="translate(27.000000, 275.000000)"> <polygon id="c-cl-xp-Shape" points="0.000891428572 6.43405714 3.00323657 6.43405714 3.00323657 10.7231451 0.000891428572 10.7231451 0.000891428572 6.43405714"/> <polygon id="c-cl-xp-Shape" points="4.48682057 0.000452571429 7.48916571 0.000452571429 7.48916571 10.7231451 4.48682057 10.7231451 4.48682057 0.000452571429"/> <polygon id="c-cl-xp-Shape" points="8.99034514 3.86062629 11.9926903 3.86062629 11.9926903 10.7231451 8.99034514 10.7231451"/> </g> </g> </g> </g> </symbol></svg>